<?xml version="1.0" encoding="utf-8"?>
<svg version="1.1" xmlns="http://www.w3.org/2000/svg" viewBox="0 0 475.059 600">
  <path d="M 82.541 600.02 L 448.421 600.02 C 459.093 600.02 467.587 591.528 467.587 580.638 C 467.587 572.58 461.924 565.174 454.521 562.344 C 417.496 545.357 409.439 498.749 444.938 461.943 C 455.827 450.837 467.587 436.027 467.587 408.804 L 467.587 84.738 C 467.587 28.549 439.491 0.02 383.738 0.02 L 83.848 0.02 C 28.094 0.02 0 28.331 0 84.738 L 0 517.697 C 0 571.926 28.312 600.02 82.541 600.02 Z M 84.501 561.472 C 54.883 561.472 38.548 545.357 38.548 517.262 C 38.548 490.692 57.06 473.921 86.461 473.921 L 378.948 473.921 C 384.392 473.921 388.966 473.268 393.321 472.18 C 377.86 503.542 381.124 536.644 400.291 561.472 L 84.501 561.472 Z M 75.354 434.067 C 67.732 434.067 61.198 427.751 61.198 419.912 L 61.198 55.12 C 61.198 47.061 67.732 40.746 75.354 40.746 C 83.194 40.746 89.728 47.061 89.728 55.12 L 89.728 419.912 C 89.728 427.751 83.194 434.067 75.354 434.067 Z" fill="black" fill-opacity="0.85"/>
</svg>